<svg width="264" height="103" viewBox="0 0 264 103" fill="none" xmlns="http://www.w3.org/2000/svg">
<path d="M146.681 102.197C140.888 102.068 135.096 102.052 129.304 101.777C125.137 101.565 120.995 101.03 116.816 100.659L115.108 100.578C108.769 99.9613 102.419 99.4759 96.1168 98.6663C90.3595 97.9216 84.6266 96.8684 78.8938 95.8976C74.0033 95.0705 69.0885 94.3748 64.2225 93.2568C53.964 91.1434 43.9507 87.7053 34.1802 82.9407C31.6168 81.6282 29.1356 79.9599 26.6789 78.3075C25.4242 77.3997 24.1271 76.6287 22.7863 75.9926C18.7024 74.2367 14.7765 71.9692 11.0111 69.19C9.76663 68.263 8.57998 67.2168 7.44985 66.048C1.61038 59.7798 -0.479092 51.4701 0.494367 41.5921C0.716542 39.7837 1.13906 38.0681 1.76449 36.4455C2.38991 34.8228 3.18486 33.3753 4.15062 32.0996C5.92416 29.5464 7.9263 27.3858 10.157 25.6212C15.3968 21.5802 20.937 18.5574 26.7739 16.5527C32.8458 14.4797 38.9832 12.8588 45.1836 11.6935C47.5581 11.2238 49.8364 10.5597 52.1391 9.78164C55.3445 8.68116 58.6322 7.93641 61.8968 7.19166C66.5727 6.11045 71.2538 5.12914 75.9374 4.24244C79.3086 3.5783 82.7041 3.04383 86.0868 2.47782C89.1009 1.99242 92.1048 1.52279 95.1189 1.118C96.3056 0.955027 97.5885 1.118 98.8227 0.939256C106.799 0.161211 114.858 0.161211 122.929 0.161211C125.968 0.161211 129.008 0.161211 132.046 0.161211C134.703 0.0648317 137.354 0.210277 139.998 0.599299C141.767 0.939256 143.559 0.728973 145.398 0.858648C148.425 1.05316 151.452 1.31251 154.479 1.55433C155.148 1.56309 155.81 1.67174 156.461 1.87852C157.129 2.02922 157.702 2.42876 158.182 3.07713C158.337 3.35575 158.513 3.60634 158.711 3.82889C158.907 4.05319 159.122 4.24069 159.352 4.39665C159.58 4.55086 159.821 4.66651 160.071 4.74537C160.32 4.82247 160.573 4.86103 160.83 4.85927C166.942 5.91069 173.032 7.06198 179.12 8.38851C185.482 9.87977 191.809 11.4989 198.159 13.1181C201.222 13.8804 204.343 14.3325 207.442 14.916C215.236 16.353 222.963 18.3174 230.622 20.811C235.628 22.325 240.535 24.3016 245.341 26.7392C248.82 28.5108 252.124 30.7608 255.252 33.4927C257.464 35.331 259.364 37.6476 260.95 40.4408C261.316 41.0594 261.651 41.706 261.955 42.3842C262.26 43.0606 262.531 43.7615 262.77 44.487C263.007 45.2107 263.21 45.9537 263.378 46.7143C263.547 47.4748 263.678 48.2476 263.773 49.0309C263.868 49.8142 263.924 50.6045 263.945 51.3983C263.965 52.1921 263.947 52.9842 263.892 53.7745C263.838 54.5648 263.746 55.3481 263.617 56.1226C263.487 56.8972 263.323 57.6577 263.121 58.4025C262.127 62.2384 260.633 65.666 258.636 68.687C255.747 73.0521 252.416 76.6532 248.64 79.4903C243.782 83.0686 238.69 85.8548 233.364 87.8473C224.53 91.3537 215.557 93.9788 206.444 95.7188C200.249 96.8842 194.064 98.1651 187.857 99.2814C185.328 99.7352 182.765 99.9455 180.213 100.221C175.583 100.724 170.954 101.242 166.325 101.63C163.477 101.873 160.627 101.969 157.79 102.019C154.088 102.019 150.384 102.019 146.681 102.019V102.197ZM244.748 80.1702C244.631 80.1492 244.514 80.1509 244.398 80.1772C244.283 80.2018 244.171 80.2508 244.066 80.3209C243.961 80.391 243.864 80.4821 243.778 80.5908C243.692 80.7012 243.62 80.8256 243.561 80.964L242.955 81.3197C243.038 81.3197 243.145 81.4179 243.181 81.3197C243.293 81.1585 243.395 80.9851 243.489 80.8028C243.94 80.8028 244.51 80.9956 244.676 80.0248C245.175 80.0248 245.685 80.2193 245.864 79.3606C246.318 79.2537 246.761 79.0872 247.193 78.8577C250.847 76.2922 254.111 73.0048 256.985 68.9954C258.955 66.3073 260.475 63.2092 261.543 59.6992C261.815 58.8248 262.036 57.9276 262.205 57.0076C262.373 56.0858 262.486 55.1518 262.545 54.2056C262.604 53.2611 262.608 52.3148 262.558 51.3668C262.506 50.4205 262.4 49.4847 262.241 48.5612C262.08 47.6377 261.867 46.737 261.602 45.8591C261.336 44.9812 261.022 44.1383 260.658 43.3287C260.295 42.5191 259.886 41.7551 259.433 41.0349C258.981 40.3129 258.489 39.647 257.959 39.0319C255.035 35.6849 251.818 32.9846 248.309 30.9343C241.998 27.3262 235.486 24.6258 228.77 22.8367C228.022 22.7088 227.27 22.6702 226.515 22.7228C226.33 22.502 226.124 22.325 225.899 22.1883C225.756 22.1077 225.578 22.1883 225.412 22.2864C225.544 22.3443 225.679 22.3916 225.815 22.4319L226.587 22.6089C227.217 23.7602 228.272 23.7269 229.127 24.1317C234.175 26.3975 239.12 29.0207 243.964 32.0032C247.436 34.1394 250.707 36.7416 253.78 39.81C256.124 42.0968 258.074 44.8936 259.632 48.1985C260.136 49.3112 260.49 50.5081 260.693 51.7856C260.897 53.063 260.938 54.351 260.819 55.6495C260.742 56.8078 260.562 57.9346 260.278 59.0316C259.996 60.1285 259.618 61.1607 259.145 62.128C258.189 64.0608 257.137 65.892 255.988 67.6181C253.364 71.5784 250.409 75.006 247.121 77.9027C246.659 78.2917 246.054 78.5177 245.934 79.4097C245.389 79.3291 244.938 79.4255 244.748 80.1702ZM70.4306 89.4997C69.3505 88.4308 68.056 88.9653 66.9413 88.8671C66.7589 88.9004 66.5843 88.9705 66.4186 89.0774C66.5688 89.1826 66.7281 89.2579 66.8938 89.3052C68.0804 89.3052 69.2671 89.3052 70.4537 89.4016C70.7504 89.6294 71.0483 90.0342 71.3681 90.0658C72.7563 90.1639 74.1575 90.1639 75.5586 90.2112C75.8527 90.5003 76.1724 90.7159 76.5192 90.8596C78.2876 91.1189 80.0804 91.3783 81.8488 91.5885C84.5791 91.9285 87.285 92.512 90.0269 92.7223C92.5787 92.9168 95.1189 93.2726 97.6707 93.5652L110.123 95.0056C111.072 95.1038 112.022 95.0056 112.971 95.1511C116.746 95.5401 120.508 96.0588 124.294 96.3339C129.493 96.7387 134.705 96.9665 139.915 97.2732C144.746 97.5483 149.577 97.501 154.42 97.8077C160.948 98.2282 167.476 97.9216 174.053 97.9216C174.717 97.9216 175.382 97.9216 176.046 97.9216C180.295 97.4519 184.533 96.949 188.783 96.4636C189.352 96.4636 189.97 96.4636 190.491 96.3672C190.702 96.3006 190.899 96.192 191.086 96.043C190.91 95.9729 190.731 95.9186 190.551 95.8801C188.462 95.8801 186.372 95.7346 184.296 95.7504C181.162 95.7504 178.029 95.9449 174.895 95.9449C161.992 95.9449 149.091 96.1885 136.199 95.2001C131.654 94.8602 127.108 94.9899 122.562 94.4554C118.502 93.9858 114.419 93.8894 110.348 93.5967C105.896 93.2568 101.445 92.9326 97.0068 92.512C93.5997 92.1879 90.2054 91.6692 86.8111 91.3134C85.2135 91.2906 83.6224 91.1399 82.0389 90.8596C79.8852 90.3689 77.7174 90.1691 75.5342 90.2603C75.1605 89.9746 74.7649 89.7643 74.3475 89.6294C73.0183 89.5488 71.7238 89.5488 70.4306 89.4997ZM33.967 17.2484C33.217 17.2379 32.4695 17.2922 31.7234 17.4114C30.3236 17.7671 28.9456 18.2525 27.5689 18.7221C22.7748 20.3396 18.1579 22.6229 13.717 25.5739C10.5718 27.554 7.80173 30.2526 5.40918 33.6715C4.81971 34.5214 4.29959 35.4449 3.8501 36.4402C3.40062 37.4373 3.03075 38.4869 2.7418 39.5874C2.45156 40.6879 2.24736 41.8182 2.12793 42.9765C2.00978 44.1365 1.98024 45.2984 2.03803 46.4672C2.05216 47.3609 2.1061 48.2493 2.19856 49.1343C2.29103 50.0192 2.42202 50.8936 2.59154 51.7575C2.75978 52.6214 2.96654 53.4678 3.20926 54.2984C3.45199 55.1291 3.73067 55.9369 4.04531 56.7202C4.35866 57.5053 4.70541 58.2623 5.08555 58.9913C5.46568 59.7185 5.87536 60.4142 6.31714 61.0748C6.75764 61.7372 7.2251 62.3593 7.72082 62.9446C8.21654 63.5299 8.73538 64.0731 9.27861 64.5743C11.8818 66.9767 14.6519 68.9481 17.5864 70.4849C17.6814 70.4849 17.7765 70.6146 17.8599 70.5831C18.0282 70.5252 18.1913 70.4446 18.3467 70.3395C18.3197 70.2186 18.2799 70.1047 18.2285 69.9995C16.3471 67.2115 14.8638 64.0766 13.7773 60.5894C13.1493 58.5619 12.7011 56.4644 12.4327 54.2949C12.1643 52.1238 12.0821 49.9421 12.1861 47.7464C12.357 45.414 12.7679 43.1657 13.4216 40.9981C14.074 38.8322 14.9396 36.8362 16.0196 35.0155C17.4978 32.4729 19.1468 30.1563 20.9678 28.0675C22.7876 25.9786 24.7435 24.1597 26.833 22.6089C28.7915 20.9897 30.8565 19.7262 32.8625 18.2858C33.2671 17.9932 33.8013 17.9459 33.9194 17.152L34.098 16.9242L33.967 17.2484ZM106.122 9.28046V9.58712C101.374 9.58712 96.6266 9.58712 91.8788 9.58712C86.8458 9.58712 81.8257 9.39437 76.7927 10.0252C72.7448 10.5264 68.6506 10.5912 64.5911 11.0784C60.068 11.6286 55.5462 12.3891 51.0359 13.1181C49.333 13.3179 47.6506 13.6964 45.9914 14.2519C42.4302 15.6135 38.8689 17.0539 35.4272 18.7712C30.547 21.1001 26.0766 24.4488 22.0145 28.8122C19.3599 31.6475 17.1883 35.0541 15.4982 39.0319C14.8471 40.5477 14.3475 42.1511 13.9969 43.8404C13.6476 45.5297 13.4588 47.254 13.4331 49.0098C13.4203 50.4363 13.5051 51.8522 13.6874 53.2575C13.8685 54.6629 14.1459 56.0333 14.5158 57.3668C14.8869 58.7021 15.3454 59.9778 15.8912 61.194C16.4383 62.4118 17.0624 63.5491 17.7649 64.6058C19.2482 66.805 20.8651 68.8009 22.6168 70.5936C24.3685 72.388 26.2255 73.9493 28.1866 75.2794C28.9481 75.7858 29.7405 76.1854 30.5599 76.478C38.5838 79.6287 46.7144 82.1346 54.9528 83.9921C63.5457 86.0003 72.199 87.4583 80.8754 88.5762C85.6232 89.1913 90.3711 89.6767 95.0483 90.1954C99.0128 90.5687 102.989 90.8438 106.917 91.1347C108.105 91.2328 109.387 91.1347 110.621 91.3292C114.871 91.7182 119.12 92.2527 123.381 92.5278C129.909 92.9326 136.437 93.192 143.001 93.4513C148.937 93.7106 154.955 94.0506 160.925 94.0506C169.233 94.0506 177.424 94.2451 185.684 93.7106C192.497 93.2726 199.311 92.9484 206.124 92.0915C210.943 91.5079 215.726 90.6808 220.486 89.5313C224.467 88.6166 228.366 87.2602 232.183 85.4641C235.998 83.6679 239.68 81.4547 243.229 78.8261C245.728 76.9581 248.075 74.7835 250.271 72.3056C252.466 69.8261 254.471 67.0871 256.285 64.0871C257.065 62.7798 257.715 61.3604 258.231 59.8289C258.421 59.34 258.58 58.8335 258.713 58.3113C258.845 57.7891 258.946 57.2547 259.017 56.7114C259.089 56.1665 259.13 55.6197 259.139 55.066C259.148 54.514 259.126 53.9637 259.074 53.4153C259.021 52.8685 258.937 52.3288 258.824 51.7978C258.71 51.2686 258.568 50.7534 258.394 50.2523C258.222 49.7528 258.023 49.2727 257.797 48.8153C257.571 48.3562 257.319 47.9251 257.044 47.5186C255.307 44.7656 253.329 42.3842 251.11 40.376C247.355 37.043 243.398 34.241 239.24 31.9717C230.609 27.2176 221.779 23.3098 212.747 20.2449C207.168 18.1316 201.502 16.6246 195.75 15.7256C190.373 14.9966 184.996 14.1064 179.618 13.572C173.946 12.9236 168.272 12.4382 162.598 11.9528C157.482 11.5147 152.367 11.1905 147.25 10.819C141.85 10.4142 136.461 9.84647 131.06 9.66949C122.823 9.37684 114.479 9.37684 106.122 9.28046ZM123.464 4.53509C115.226 4.7296 106.976 4.40541 98.7508 5.40951C95.1908 5.15016 91.6296 6.17003 88.0684 6.46268C87.8822 6.50824 87.6998 6.57833 87.5226 6.67296C87.6844 6.78336 87.8552 6.85871 88.0325 6.89901C91.5937 6.89901 95.0483 6.89901 98.5491 6.89901C100.722 6.89901 102.905 6.52751 105.078 6.54329C114.36 6.54329 123.654 6.20333 132.936 6.96385C137.565 7.35287 142.206 7.12682 146.847 7.72612C150.23 8.16246 153.648 8.03279 157.043 8.55148C159.963 8.98782 162.918 8.68116 165.839 9.28046C167.069 9.4189 168.299 9.4189 169.529 9.28046C169.767 9.21738 169.997 9.121 170.218 8.98782C170.041 8.90371 169.858 8.83887 169.672 8.79506C168.925 8.68116 168.164 8.64786 167.417 8.50242C165.044 8.03279 162.741 7.44925 160.402 7.04446C157.589 6.55906 154.752 6.17003 151.928 5.81431C149.102 5.45858 146.396 5.02049 143.654 5.02049C136.924 4.74537 130.194 4.68053 123.464 4.53509ZM63.1425 88.5272H64.3291C64.4486 88.5272 64.5552 88.366 64.6617 88.2854C64.5731 88.238 64.4832 88.2048 64.3882 88.1872H62.1331C62.0367 88.2083 61.9456 88.2521 61.8608 88.3169C62.0188 88.4361 62.1844 88.5289 62.3591 88.592C62.6211 88.592 62.8818 88.571 63.1425 88.5272ZM58.8813 87.7176C59.1896 87.7176 59.4631 87.7176 59.7354 87.7176C59.8766 87.672 60.0115 87.6019 60.1399 87.5073C59.9678 87.4425 59.7932 87.3952 59.6172 87.3619C59.3437 87.3373 59.0714 87.3373 58.7979 87.3619C58.6528 87.4162 58.5179 87.5021 58.3946 87.6212L58.8813 87.7176ZM194.052 95.4104V95.2334C193.838 95.2492 193.624 95.2825 193.411 95.3298C193.476 95.3929 193.547 95.4367 193.626 95.4595L194.052 95.4104ZM56.7572 86.682H56.5068L56.7328 86.7783L56.7572 86.682ZM54.9875 86.682V86.8432H55.2379L54.9875 86.682Z" fill="#E6E520"/>
</svg>
